# xmcd
#
# Track frame offsets:
#	150
#	20305
#	54201
#	66598
#	84722
#	99020
#	117877
#	151186
#	170530
#	184963
#	208973
#	227149
#	237591
#	255746
#	271334
#	296200
#	327235
#
# Disc length: 4649 seconds
#
# Revision: 0
# Processed by: cddbd v1.5.2PL0 Copyright (c) Steve Scherf et al.
# Submitted via: EZCDAudioConverter 7.0.6.1
#
DISCID=f5122711
DTITLE=I'm A Freak 2 Baby 2/3
DYEAR=1900
DGENRE=
TTITLE0=Tear Gas - Woman For Sale
TTITLE1=Atomic Rooster - Death Walks Behind You
TTITLE2=Edgar Broughton Band - Apache Dropout
TTITLE3=N.S.U. - Turn On, Or Turn Me Down
TTITLE4=Red Dirt - Brain Worker
TTITLE5=The Rats - Early In Spring
TTITLE6=The Deviants - Somewhere To Go
TTITLE7=Dogfeet - Armageddon
TTITLE8=Pluto - Down And Out
TTITLE9=The Human Beast - Brush With The Midnight Butterfly
TTITLE10=Dark - R.C.8. [Demo]
TTITLE11=Purple Haze - Wait A While
TTITLE12=Three Man Army - Daze
TTITLE13=Tonge - Old Father Time
TTITLE14=Mouse - Ashen Besher
TTITLE15=Sunday - Fussing And Fighting
TTITLE16=Freedom - Going Down
EXTD=
EXTT0=
EXTT1=
EXTT2=
EXTT3=
EXTT4=
EXTT5=
EXTT6=
EXTT7=
EXTT8=
EXTT9=
EXTT10=
EXTT11=
EXTT12=
EXTT13=
EXTT14=
EXTT15=
EXTT16=
PLAYORDER=
